<svg width="324" height="324" viewBox="0 0 324 324" fill="none" xmlns="http://www.w3.org/2000/svg">
<path d="M156.374 172.95C156.867 167.009 159.461 161.525 164.378 158.023C158.088 155.84 156.857 149.387 157.18 143.377C155.451 150.474 153.321 157.186 145.009 157.832C153.127 159.682 155.713 164.869 156.374 172.95Z" fill="white"/>
<path d="M164.674 157.816C159.565 161.307 156.877 166.891 156.374 172.95C155.713 164.869 153.127 159.682 145.009 157.832C153.321 157.186 155.451 150.474 157.18 143.377C156.855 149.421 158.102 155.914 164.486 158.06" stroke="#FBD85C" stroke-width="8.66887" stroke-miterlimit="1.5" stroke-linecap="round" stroke-linejoin="round"/>
<path d="M108.366 100.067C108.848 100.896 109.286 101.781 109.825 102.573" stroke="#FBD85C" stroke-width="8.66887" stroke-miterlimit="1.5" stroke-linecap="round" stroke-linejoin="round"/>
<path d="M114.585 110.818C119.439 119.268 124.995 127.53 129.316 136.259" stroke="#FBD85C" stroke-width="8.66887" stroke-miterlimit="1.5" stroke-linecap="round" stroke-linejoin="round"/>
<path d="M128.189 81.3792C133.026 94.4617 136.561 108.148 141.798 121.063" stroke="#FBD85C" stroke-width="8.66887" stroke-miterlimit="1.5" stroke-linecap="round" stroke-linejoin="round"/>
<path d="M157.45 76.6384C157.638 84.942 157.812 93.2456 157.992 101.546" stroke="#FBD85C" stroke-width="8.66887" stroke-miterlimit="1.5" stroke-linecap="round" stroke-linejoin="round"/>
<path d="M158.075 111.713C158.171 113.207 158.191 114.703 158.277 116.197" stroke="#FBD85C" stroke-width="8.66887" stroke-miterlimit="1.5" stroke-linecap="round" stroke-linejoin="round"/>
<path d="M184.485 103.627C178.31 112.977 172.159 122.314 166.191 131.805M195.635 86.239C192.985 92.7284 188.296 97.8606 184.486 103.629" stroke="#FBD85C" stroke-width="8.66887" stroke-miterlimit="1.5" stroke-linecap="round" stroke-linejoin="round"/>
<path d="M190.059 128.807C194.831 124.968 199.341 120.314 203.572 115.884" stroke="#FBD85C" stroke-width="8.66887" stroke-miterlimit="1.5" stroke-linecap="round" stroke-linejoin="round"/>
<path d="M209.587 110.493C211.365 108.734 213.281 107.126 215.062 105.367" stroke="#FBD85C" stroke-width="8.66887" stroke-miterlimit="1.5" stroke-linecap="round" stroke-linejoin="round"/>
<path d="M234.021 132.168C220.057 139.544 204.29 146.112 189.207 151.09" stroke="#FBD85C" stroke-width="8.66887" stroke-miterlimit="1.5" stroke-linecap="round" stroke-linejoin="round"/>
<path d="M125.097 149.542C111.442 141.469 97.3992 134.318 83.4176 126.865" stroke="#FBD85C" stroke-width="8.66887" stroke-miterlimit="1.5" stroke-linecap="round" stroke-linejoin="round"/>
<path d="M122.141 161.766C119.368 161.862 116.604 161.973 113.845 162.265" stroke="#FBD85C" stroke-width="8.66887" stroke-miterlimit="1.5" stroke-linecap="round" stroke-linejoin="round"/>
<path d="M103.84 162.839C96.4583 163.232 88.9685 163.158 81.6229 163.974" stroke="#FBD85C" stroke-width="8.66887" stroke-miterlimit="1.5" stroke-linecap="round" stroke-linejoin="round"/>
<path d="M189.893 166.065C193.211 166.175 196.981 166.391 200.279 167.064" stroke="#FBD85C" stroke-width="8.66887" stroke-miterlimit="1.5" stroke-linecap="round" stroke-linejoin="round"/>
<path d="M210.986 169.524C221.719 170.651 232.167 173.583 242.753 175.416" stroke="#FBD85C" stroke-width="8.66887" stroke-miterlimit="1.5" stroke-linecap="round" stroke-linejoin="round"/>
<path d="M134.91 171.714C118.597 184.09 101.106 194.619 84.8389 207.096" stroke="#FBD85C" stroke-width="8.66887" stroke-miterlimit="1.5" stroke-linecap="round" stroke-linejoin="round"/>
<path d="M138.799 187.66C131.242 197.943 126.321 210.019 120.146 221.107" stroke="#FBD85C" stroke-width="8.66887" stroke-miterlimit="1.5" stroke-linecap="round" stroke-linejoin="round"/>
<path d="M134.989 247.172C136.349 239.791 139.088 232.53 141.183 225.341C142.546 220.667 143.324 215.606 145.508 211.217" stroke="#FBD85C" stroke-width="8.66887" stroke-miterlimit="1.5" stroke-linecap="round" stroke-linejoin="round"/>
<path d="M149.44 202.629C150.03 201.152 150.406 199.591 151.047 198.136" stroke="#FBD85C" stroke-width="8.66887" stroke-miterlimit="1.5" stroke-linecap="round" stroke-linejoin="round"/>
<path d="M162.681 191.524C166.97 206.488 169.957 221.862 173.863 236.949" stroke="#FBD85C" stroke-width="8.66887" stroke-miterlimit="1.5" stroke-linecap="round" stroke-linejoin="round"/>
<path d="M179.492 182.618C186.366 190.2 194.929 196.369 201.528 204.127" stroke="#FBD85C" stroke-width="8.66887" stroke-miterlimit="1.5" stroke-linecap="round" stroke-linejoin="round"/>
<path d="M211.286 212.499C213.014 214.503 215.022 216.401 216.949 218.211" stroke="#FBD85C" stroke-width="8.66887" stroke-miterlimit="1.5" stroke-linecap="round" stroke-linejoin="round"/>
</svg>
