<svg width="203" height="203" viewBox="0 0 203 203" fill="none" xmlns="http://www.w3.org/2000/svg">
<path fill-rule="evenodd" clip-rule="evenodd" d="M85.8279 24.2234C85.8777 37.9714 81.2021 62.84 117.169 68.8508C94.8421 72.0734 86.3099 89.3308 85.8321 111.467C85.2845 94.7577 87.5763 75.4639 50.9478 70.1756C86.1029 67.3959 85.6153 38.3519 85.8279 24.2234Z" fill="white" stroke="#00D7F4" stroke-width="8.66887" stroke-miterlimit="1.5" stroke-linecap="round" stroke-linejoin="round"/>
<path fill-rule="evenodd" clip-rule="evenodd" d="M120.735 91.2927C120.785 105.041 111.42 130.567 147.387 136.578C125.06 139.801 121.217 156.4 120.739 178.536C120.192 161.826 119.072 142.386 93.6658 136.81C118.292 133.871 117.877 110.054 120.735 91.2927Z" fill="white" stroke="#00D7F4" stroke-width="8.66887" stroke-miterlimit="1.5" stroke-linecap="round" stroke-linejoin="round"/>
<path d="M47.6785 20.2275C53.4837 26.9437 58.0867 34.7343 64.0441 41.3054" stroke="#00D7F4" stroke-width="8.66887" stroke-miterlimit="1.5" stroke-linecap="round" stroke-linejoin="round"/>
<path d="M104.024 46.2754C108.37 42.694 112.479 38.6163 116 34.2146" stroke="#00D7F4" stroke-width="8.66887" stroke-miterlimit="1.5" stroke-linecap="round" stroke-linejoin="round"/>
<path d="M65.5338 92.5444C59.6923 97.9586 54.2675 103.986 48.9841 109.947" stroke="#00D7F4" stroke-width="8.66887" stroke-miterlimit="1.5" stroke-linecap="round" stroke-linejoin="round"/>
<path d="M101.855 104.96C102.493 105.935 103.262 106.823 103.957 107.759" stroke="#00D7F4" stroke-width="8.66887" stroke-miterlimit="1.5" stroke-linecap="round" stroke-linejoin="round"/>
<path d="M94.6172 160.575C96.007 159.191 97.4463 157.857 98.815 156.451" stroke="#00D7F4" stroke-width="8.66887" stroke-miterlimit="1.5" stroke-linecap="round" stroke-linejoin="round"/>
<path d="M135.504 115.541C141.655 109.974 147.005 103.859 152.184 97.3945" stroke="#00D7F4" stroke-width="8.66887" stroke-miterlimit="1.5" stroke-linecap="round" stroke-linejoin="round"/>
<path d="M137.005 161.057C144.256 165.569 149.303 174.859 154.32 181.646" stroke="#00D7F4" stroke-width="8.66887" stroke-miterlimit="1.5" stroke-linecap="round" stroke-linejoin="round"/>
</svg>
